<svg width="12" height="16" viewBox="0 0 12 16" fill="none" xmlns="http://www.w3.org/2000/svg">
<path fill-rule="evenodd" clip-rule="evenodd" d="M2 0C0.89543 0 0 0.895432 0 2V14C0 15.1046 0.89543 16 2 16H10C11.1046 16 12 15.1046 12 14V5.41421C12 4.88378 11.7893 4.37507 11.4142 4L8 0.585786C7.62493 0.210714 7.11622 0 6.58579 0H2ZM7 6C7 5.44772 6.55228 5 6 5C5.44772 5 5 5.44772 5 6V8H3C2.44772 8 2 8.44772 2 9C2 9.55228 2.44772 10 3 10H5V12C5 12.5523 5.44771 13 6 13C6.55228 13 7 12.5523 7 12L7 10H9C9.55228 10 10 9.55228 10 9C10 8.44772 9.55228 8 9 8H7V6Z" fill="white"/>
</svg>
