<svg width="16" height="16" viewBox="0 0 16 16" fill="none" xmlns="http://www.w3.org/2000/svg">
<path d="M12.714 13.5474C10.1105 16.1509 5.88943 16.1509 3.28593 13.5474C1.98419 12.2456 1.33332 10.5395 1.33331 8.83333C1.33331 7.12718 1.98418 5.42103 3.28593 4.11928C3.28593 4.11928 3.83335 5.49996 5.50002 6.3333C5.50002 4.66663 5.91668 2.16663 7.98822 0.5C9.66665 2.16667 11.4093 2.81454 12.714 4.11928C14.0158 5.42103 14.6666 7.12718 14.6666 8.83333C14.6666 10.5395 14.0158 12.2456 12.714 13.5474Z" fill="#EF4444"/>
<path d="M6.23221 11.4344C7.20852 12.4107 8.79144 12.4107 9.76775 11.4344C10.2559 10.9462 10.5 10.3065 10.5 9.66666C10.5 9.02684 10.2559 8.38702 9.76775 7.89886C9.28268 7.41379 8.64787 7.16972 8.01212 7.16666L7.1666 9.66661L5.49998 9.66666C5.49999 10.3065 5.74406 10.9462 6.23221 11.4344Z" fill="#EF4444"/>
<path d="M12.714 13.5474C10.1105 16.1509 5.88943 16.1509 3.28593 13.5474C1.98419 12.2456 1.33332 10.5395 1.33331 8.83333C1.33331 7.12718 1.98418 5.42103 3.28593 4.11928C3.28593 4.11928 3.83335 5.49996 5.50002 6.3333C5.50002 4.66663 5.91668 2.16663 7.98822 0.5C9.66665 2.16667 11.4093 2.81454 12.714 4.11928C14.0158 5.42103 14.6666 7.12718 14.6666 8.83333C14.6666 10.5395 14.0158 12.2456 12.714 13.5474Z" stroke="#F9FAFB" stroke-linecap="round" stroke-linejoin="round"/>
<path d="M6.23221 11.4344C7.20852 12.4107 8.79144 12.4107 9.76775 11.4344C10.2559 10.9462 10.5 10.3065 10.5 9.66666C10.5 9.02684 10.2559 8.38702 9.76775 7.89886C9.28268 7.41379 8.64787 7.16972 8.01212 7.16666L7.1666 9.66661L5.49998 9.66666C5.49999 10.3065 5.74406 10.9462 6.23221 11.4344Z" stroke="#F9FAFB" stroke-linecap="round" stroke-linejoin="round"/>
</svg>
