<svg width="31" height="31" viewBox="0 0 31 31" fill="none" xmlns="http://www.w3.org/2000/svg">
<path d="M16.3158 2.93684L20.8842 0L25.1263 7.50526L16.3158 2.93684Z" fill="#B1173C"/>
<path d="M15.3368 3.58947L10.7684 5.87368L30.3474 16.9684L25.7789 9.13684L15.3368 3.58947Z" fill="#B1173C"/>
<path d="M30.3474 18.2737L10.7684 6.85263V29.6947L30.3474 18.2737Z" fill="#B1173C"/>
<path d="M5.22105 14.6842L9.46316 6.85263V29.6947L5.22105 27.7368V14.6842Z" fill="#B1173C"/>
<path d="M0 24.4737L4.24211 16.9684V27.0842L0 24.4737Z" fill="#B1173C"/>
<path d="M11.7474 30.3474L31 19.2526V24.4737L20.8842 30.3474H11.7474Z" fill="#B1173C"/>
<path d="M22.5158 30.3474L31 25.4526V30.3474H22.5158Z" fill="#B1173C"/>
<path d="M15.6633 20.5579V15.0105L20.5581 17.6211L15.6633 20.5579Z" stroke="#E9E9E9"/>
</svg>
