<svg width="28" height="28" viewBox="0 0 28 28" fill="none" xmlns="http://www.w3.org/2000/svg">
<path d="M12.5002 14C12.5002 14.3978 12.6582 14.7794 12.9395 15.0607C13.2208 15.342 13.6024 15.5 14.0002 15.5C14.398 15.5 14.7795 15.342 15.0608 15.0607C15.3421 14.7794 15.5002 14.3978 15.5002 14C15.5002 13.6022 15.3421 13.2206 15.0608 12.9393C14.7795 12.658 14.398 12.5 14.0002 12.5C13.6024 12.5 13.2208 12.658 12.9395 12.9393C12.6582 13.2206 12.5002 13.6022 12.5002 14ZM18.7502 14C18.7502 14.3978 18.9082 14.7794 19.1895 15.0607C19.4708 15.342 19.8524 15.5 20.2502 15.5C20.648 15.5 21.0295 15.342 21.3108 15.0607C21.5921 14.7794 21.7502 14.3978 21.7502 14C21.7502 13.6022 21.5921 13.2206 21.3108 12.9393C21.0295 12.658 20.648 12.5 20.2502 12.5C19.8524 12.5 19.4708 12.658 19.1895 12.9393C18.9082 13.2206 18.7502 13.6022 18.7502 14ZM6.25018 14C6.25018 14.3978 6.40821 14.7794 6.68952 15.0607C6.97082 15.342 7.35235 15.5 7.75018 15.5C8.148 15.5 8.52953 15.342 8.81084 15.0607C9.09214 14.7794 9.25018 14.3978 9.25018 14C9.25018 13.6022 9.09214 13.2206 8.81084 12.9393C8.52953 12.658 8.148 12.5 7.75018 12.5C7.35235 12.5 6.97082 12.658 6.68952 12.9393C6.40821 13.2206 6.25018 13.6022 6.25018 14ZM26.9127 8.575C26.2064 6.89687 25.1939 5.39062 23.9033 4.09688C22.6217 2.81061 21.1003 1.78819 19.4252 1.0875C17.7064 0.365625 15.8814 0 14.0002 0H13.9377C12.0439 0.009375 10.2096 0.384375 8.48455 1.12188C6.82379 1.82975 5.31663 2.85399 4.04705 4.1375C2.76893 5.42812 1.7658 6.92813 1.07205 8.6C0.353302 10.3313 -0.00919771 12.1719 0.00017729 14.0656C0.0107812 16.2358 0.524214 18.3741 1.50018 20.3125V25.0625C1.50018 25.4437 1.65163 25.8094 1.92121 26.079C2.19079 26.3485 2.55643 26.5 2.93768 26.5H7.6908C9.62922 27.476 11.7675 27.9894 13.9377 28H14.0033C15.8752 28 17.6908 27.6375 19.4002 26.9281C21.0668 26.2358 22.5826 25.2253 23.8627 23.9531C25.1533 22.675 26.1689 21.1812 26.8783 19.5156C27.6158 17.7906 27.9908 15.9563 28.0002 14.0625C28.0096 12.1594 27.6408 10.3125 26.9127 8.575ZM22.1908 22.2625C20.0002 24.4313 17.0939 25.625 14.0002 25.625H13.9471C12.0627 25.6156 10.1908 25.1469 8.53768 24.2656L8.27518 24.125H3.87518V19.725L3.73455 19.4625C2.8533 17.8094 2.38455 15.9375 2.37518 14.0531C2.36268 10.9375 3.5533 8.0125 5.73768 5.80937C7.91893 3.60625 10.8346 2.3875 13.9502 2.375H14.0033C15.5658 2.375 17.0814 2.67812 18.5096 3.27812C19.9033 3.8625 21.1533 4.70312 22.2283 5.77812C23.3002 6.85 24.1439 8.10312 24.7283 9.49687C25.3346 10.9406 25.6377 12.4719 25.6314 14.0531C25.6127 17.1656 24.3908 20.0813 22.1908 22.2625Z" fill="white"/>
</svg>
