<?xml version="1.0" encoding="UTF-8"?>
<svg width="700pt" height="700pt" version="1.1" viewBox="100 55 500 500" xmlns="http://www.w3.org/2000/svg">
 <path d="m350 140c-21.66 0-42.43 8.6055-57.746 23.918-15.316 15.316-23.922 36.09-23.922 57.75 0 21.656 8.6055 42.43 23.922 57.746 15.316 15.316 36.086 23.918 57.746 23.918s42.43-8.6016 57.746-23.918c15.316-15.316 23.922-36.09 23.922-57.746 0-21.66-8.6055-42.434-23.922-57.75-15.316-15.312-36.086-23.918-57.746-23.918zm0 140c-15.473 0-30.309-6.1445-41.246-17.086-10.941-10.938-17.086-25.777-17.086-41.246 0-15.473 6.1445-30.309 17.086-41.25 10.938-10.938 25.773-17.086 41.246-17.086s30.309 6.1484 41.246 17.086c10.941 10.941 17.086 25.777 17.086 41.25-0.015625 15.465-6.168 30.293-17.105 41.227-10.934 10.938-25.762 17.086-41.227 17.105zm0-210c-55.695 0-109.11 22.125-148.49 61.508-39.383 39.383-61.508 92.797-61.508 148.49s22.125 109.11 61.508 148.49c39.383 39.383 92.797 61.508 148.49 61.508s109.11-22.125 148.49-61.508c39.383-39.383 61.508-92.797 61.508-148.49s-22.125-109.11-61.508-148.49c-39.383-39.383-92.797-61.508-148.49-61.508zm-116.67 355.48v-28.816c0.015625-12.375 4.9375-24.234 13.684-32.984 8.75-8.75 20.613-13.668 32.984-13.684h140c12.371 0.015625 24.234 4.9336 32.984 13.684 8.7461 8.75 13.668 20.609 13.684 32.984v28.82-0.003906c-33.047 26.648-74.219 41.184-116.67 41.184s-83.621-14.535-116.67-41.184zm256.67-22.43v-6.3867c0-18.566-7.375-36.371-20.504-49.5-13.125-13.125-30.93-20.5-49.496-20.5h-140c-18.566 0-36.371 7.375-49.496 20.5-13.129 13.129-20.504 30.934-20.504 49.5v6.3867c-31.852-36.117-48.516-83.148-46.504-131.26 2.0117-48.117 22.539-93.594 57.297-126.93 34.754-33.336 81.051-51.945 129.21-51.945s94.453 18.609 129.21 51.945c34.758 33.332 55.285 78.809 57.297 126.93 2.0117 48.113-14.652 95.145-46.504 131.26z"/>
</svg>
