<svg width="48" height="14" viewBox="0 0 48 14" fill="none" xmlns="http://www.w3.org/2000/svg">
<path d="M5.436 13.216C4.512 13.216 3.702 13.054 3.006 12.73C2.31 12.406 1.764 11.944 1.368 11.344C0.984 10.744 0.786 10.03 0.774 9.202H2.79C2.802 9.874 3.036 10.444 3.492 10.912C3.948 11.38 4.59 11.614 5.418 11.614C6.15 11.614 6.72 11.44 7.128 11.092C7.548 10.732 7.758 10.276 7.758 9.724C7.758 9.28 7.656 8.92 7.452 8.644C7.26 8.368 6.99 8.14 6.642 7.96C6.306 7.78 5.916 7.618 5.472 7.474C5.028 7.33 4.56 7.174 4.068 7.006C3.096 6.682 2.364 6.262 1.872 5.746C1.392 5.23 1.152 4.552 1.152 3.712C1.14 3.004 1.302 2.386 1.638 1.858C1.986 1.33 2.466 0.921999 3.078 0.633999C3.702 0.334 4.428 0.184 5.256 0.184C6.072 0.184 6.786 0.334 7.398 0.633999C8.022 0.933999 8.508 1.354 8.856 1.894C9.204 2.422 9.384 3.04 9.396 3.748H7.38C7.38 3.424 7.296 3.118 7.128 2.83C6.96 2.53 6.714 2.284 6.39 2.092C6.066 1.9 5.67 1.804 5.202 1.804C4.602 1.792 4.104 1.942 3.708 2.254C3.324 2.566 3.132 2.998 3.132 3.55C3.132 4.042 3.276 4.42 3.564 4.684C3.852 4.948 4.248 5.17 4.752 5.35C5.256 5.518 5.832 5.716 6.48 5.944C7.104 6.148 7.662 6.394 8.154 6.682C8.646 6.97 9.036 7.348 9.324 7.816C9.624 8.284 9.774 8.878 9.774 9.598C9.774 10.234 9.612 10.828 9.288 11.38C8.964 11.92 8.478 12.364 7.83 12.712C7.182 13.048 6.384 13.216 5.436 13.216ZM11.788 13V0.0399995H13.696V5.512C13.996 4.996 14.41 4.594 14.938 4.306C15.478 4.006 16.072 3.856 16.72 3.856C17.788 3.856 18.628 4.192 19.24 4.864C19.852 5.536 20.158 6.538 20.158 7.87V13H18.268V8.068C18.268 6.34 17.578 5.476 16.198 5.476C15.478 5.476 14.878 5.728 14.398 6.232C13.93 6.736 13.696 7.456 13.696 8.392V13H11.788ZM25.4292 13.216C24.6732 13.216 24.0492 13.09 23.5572 12.838C23.0652 12.586 22.6992 12.256 22.4592 11.848C22.2192 11.428 22.0992 10.972 22.0992 10.48C22.0992 9.616 22.4352 8.932 23.1072 8.428C23.7792 7.924 24.7392 7.672 25.9872 7.672H28.3272V7.51C28.3272 6.814 28.1352 6.292 27.7512 5.944C27.3792 5.596 26.8932 5.422 26.2932 5.422C25.7652 5.422 25.3032 5.554 24.9072 5.818C24.5232 6.07 24.2892 6.448 24.2052 6.952H22.2972C22.3572 6.304 22.5732 5.752 22.9452 5.296C23.3292 4.828 23.8092 4.474 24.3852 4.234C24.9732 3.982 25.6152 3.856 26.3112 3.856C27.5592 3.856 28.5252 4.186 29.2092 4.846C29.8932 5.494 30.2352 6.382 30.2352 7.51V13H28.5792L28.4172 11.47C28.1652 11.962 27.7992 12.376 27.3192 12.712C26.8392 13.048 26.2092 13.216 25.4292 13.216ZM25.8072 11.668C26.3232 11.668 26.7552 11.548 27.1032 11.308C27.4632 11.056 27.7392 10.726 27.9312 10.318C28.1352 9.91 28.2612 9.46 28.3092 8.968H26.1852C25.4292 8.968 24.8892 9.1 24.5652 9.364C24.2532 9.628 24.0972 9.958 24.0972 10.354C24.0972 10.762 24.2472 11.086 24.5472 11.326C24.8592 11.554 25.2792 11.668 25.8072 11.668ZM32.4599 13V4.072H34.1699L34.3319 5.764C34.6439 5.176 35.0759 4.714 35.6279 4.378C36.1919 4.03 36.8699 3.856 37.6619 3.856V5.854H37.1399C36.6119 5.854 36.1379 5.944 35.7179 6.124C35.3099 6.292 34.9799 6.586 34.7279 7.006C34.4879 7.414 34.3679 7.984 34.3679 8.716V13H32.4599ZM43.2277 13.216C42.3517 13.216 41.5717 13.024 40.8877 12.64C40.2157 12.244 39.6877 11.698 39.3037 11.002C38.9197 10.306 38.7277 9.496 38.7277 8.572C38.7277 7.636 38.9137 6.814 39.2857 6.106C39.6697 5.398 40.1977 4.846 40.8697 4.45C41.5537 4.054 42.3457 3.856 43.2457 3.856C44.1217 3.856 44.8837 4.054 45.5317 4.45C46.1797 4.834 46.6837 5.35 47.0437 5.998C47.4037 6.646 47.5837 7.36 47.5837 8.14C47.5837 8.26 47.5777 8.392 47.5657 8.536C47.5657 8.668 47.5597 8.818 47.5477 8.986H40.5997C40.6597 9.85 40.9417 10.51 41.4457 10.966C41.9617 11.41 42.5557 11.632 43.2277 11.632C43.7677 11.632 44.2177 11.512 44.5777 11.272C44.9497 11.02 45.2257 10.684 45.4057 10.264H47.3137C47.0737 11.104 46.5937 11.806 45.8737 12.37C45.1657 12.934 44.2837 13.216 43.2277 13.216ZM43.2277 5.422C42.5917 5.422 42.0277 5.614 41.5357 5.998C41.0437 6.37 40.7437 6.934 40.6357 7.69H45.6757C45.6397 6.994 45.3937 6.442 44.9377 6.034C44.4817 5.626 43.9117 5.422 43.2277 5.422Z" fill="#3B82F6"/>
</svg>

