<svg width="20" height="20" viewBox="0 0 20 20" fill="none" xmlns="http://www.w3.org/2000/svg">
<path d="M8.16675 8.16667H3.79981C2.43694 8.16667 1.55053 9.60091 2.16003 10.8199L5.36836 17.2366C5.67891 17.8577 6.31373 18.25 7.00814 18.25H10.6911C10.841 18.25 10.9903 18.2316 11.1357 18.1953L14.5834 17.3333M8.16675 8.16667V3.58333C8.16675 2.57081 8.98756 1.75 10.0001 1.75H10.0876C10.5455 1.75 10.9167 2.12122 10.9167 2.57915C10.9167 3.23393 11.1106 3.87406 11.4738 4.41887L14.5834 9.08333V17.3333M8.16675 8.16667H10.0001M14.5834 17.3333H16.4167C17.4293 17.3333 18.2501 16.5125 18.2501 15.5V10C18.2501 8.98748 17.4293 8.16667 16.4167 8.16667H14.1251" stroke="#111827" stroke-width="2" stroke-linecap="round" stroke-linejoin="round"/>
</svg>
