<svg width="37" height="10" viewBox="0 0 37 10" fill="#000" xmlns="http://www.w3.org/2000/svg">
<path d="M3.234 10V1.642H0.378V0.199999H7.896V1.642H5.026V10H3.234ZM8.52348 10V0.199999H10.6515L13.7735 6.416L16.8535 0.199999H18.9815V10H17.1895V3.238L14.4595 8.6H13.0455L10.3155 3.238V10H8.52348ZM20.1829 10V0.199999H23.5289C24.6769 0.199999 25.6195 0.405333 26.3569 0.816C27.1035 1.21733 27.6542 1.78667 28.0089 2.524C28.3729 3.252 28.5549 4.11067 28.5549 5.1C28.5549 6.08933 28.3729 6.95267 28.0089 7.69C27.6542 8.418 27.1035 8.98733 26.3569 9.398C25.6195 9.79933 24.6769 10 23.5289 10H20.1829ZM21.9749 8.46H23.4449C24.2662 8.46 24.9149 8.32933 25.3909 8.068C25.8669 7.79733 26.2075 7.41467 26.4129 6.92C26.6182 6.416 26.7209 5.80933 26.7209 5.1C26.7209 4.4 26.6182 3.798 26.4129 3.294C26.2075 2.79 25.8669 2.40267 25.3909 2.132C24.9149 1.86133 24.2662 1.726 23.4449 1.726H21.9749V8.46ZM29.436 10V0.199999H33.37C34.3873 0.199999 35.162 0.437999 35.694 0.913999C36.2353 1.38067 36.506 1.98267 36.506 2.72C36.506 3.336 36.338 3.83067 36.002 4.204C35.6753 4.568 35.274 4.81533 34.798 4.946C35.358 5.058 35.82 5.338 36.184 5.786C36.548 6.22467 36.73 6.738 36.73 7.326C36.73 8.10067 36.45 8.74 35.89 9.244C35.33 9.748 34.5367 10 33.51 10H29.436ZM31.228 4.316H33.104C33.608 4.316 33.9953 4.19933 34.266 3.966C34.5367 3.73267 34.672 3.40133 34.672 2.972C34.672 2.56133 34.5367 2.23933 34.266 2.006C34.0047 1.76333 33.608 1.642 33.076 1.642H31.228V4.316ZM31.228 8.544H33.23C33.762 8.544 34.1727 8.42267 34.462 8.18C34.7607 7.928 34.91 7.578 34.91 7.13C34.91 6.67267 34.756 6.31333 34.448 6.052C34.14 5.79067 33.7247 5.66 33.202 5.66H31.228V8.544Z" fill="url(#paint0_linear_1982_4801)"/>
<defs>
<linearGradient id="paint0_linear_1982_4801" x1="1.02632" y1="-2.63637" x2="38.4869" y2="2.90491" gradientUnits="userSpaceOnUse">
<stop stop-color="#8CD1A0"/>
<stop offset="1" stop-color="#37C3CC"/>
</linearGradient>
</defs>
</svg>
