<svg width="12" height="13" viewBox="0 0 12 13" fill="none" xmlns="http://www.w3.org/2000/svg">
<path fill-rule="evenodd" clip-rule="evenodd" d="M0.399902 2.00002C0.399902 1.11637 1.11625 0.400024 1.9999 0.400024H9.9999C10.8836 0.400024 11.5999 1.11637 11.5999 2.00002V8.40002C11.5999 9.28368 10.8836 10 9.9999 10H8.22455L8.3223 10.391L8.96561 11.0343C9.19441 11.2631 9.26285 11.6072 9.13903 11.9062C9.01521 12.2051 8.7235 12.4 8.39993 12.4H3.59993C3.27636 12.4 2.98465 12.2051 2.86082 11.9062C2.737 11.6072 2.80544 11.2631 3.03424 11.0343L3.67755 10.391L3.7753 10H1.9999C1.11625 10 0.399902 9.28368 0.399902 8.40002V2.00002ZM5.01694 7.60002C5.00516 7.59976 4.99341 7.59976 4.98171 7.60002H1.9999V2.00002H9.9999V7.60002H7.01815C7.00644 7.59976 6.99469 7.59976 6.98291 7.60002H5.01694Z" fill="#FFE4E6"/>
</svg>
