<svg width="14" height="14" viewBox="0 0 14 14" fill="none" xmlns="http://www.w3.org/2000/svg">
<path fill-rule="evenodd" clip-rule="evenodd" d="M7.29916 13.4C10.9659 13.4 13.9384 10.5346 13.9384 6.99998C13.9384 3.46535 10.9659 0.599976 7.29916 0.599976C3.63241 0.599976 0.659912 3.46535 0.659912 6.99998C0.659912 10.5346 3.63241 13.4 7.29916 13.4ZM6.92961 4.73434C6.67495 4.57068 6.34751 4.55542 6.07766 4.69464C5.80781 4.83385 5.63935 5.10494 5.63935 5.39998V8.59998C5.63935 8.89501 5.80781 9.1661 6.07766 9.30532C6.34751 9.44453 6.67495 9.42927 6.92961 9.26562L9.41933 7.66562C9.65021 7.51724 9.78888 7.26746 9.78888 6.99998C9.78888 6.73249 9.65021 6.48271 9.41933 6.33434L6.92961 4.73434Z" fill="#FFE4E6"/>
</svg>
