<svg width="18" height="18" viewBox="0 0 18 18" fill="none" xmlns="http://www.w3.org/2000/svg">
<path d="M15.8898 2.11019L16.5969 1.40309V1.40309L15.8898 2.11019ZM4.41667 16.5296V17.5296C4.68188 17.5296 4.93624 17.4242 5.12377 17.2367L4.41667 16.5296ZM1.5 16.5296H0.5C0.5 17.0819 0.947715 17.5296 1.5 17.5296L1.5 16.5296ZM1.5 13.5537L0.792893 12.8466C0.605357 13.0341 0.5 13.2885 0.5 13.5537H1.5ZM13.6506 2.8173C14.0737 2.39423 14.7596 2.39423 15.1827 2.8173L16.5969 1.40309C15.3928 0.198971 13.4405 0.198971 12.2364 1.40309L13.6506 2.8173ZM15.1827 2.8173C15.6057 3.24037 15.6057 3.9263 15.1827 4.34937L16.5969 5.76358C17.801 4.55946 17.801 2.6072 16.5969 1.40309L15.1827 2.8173ZM15.1827 4.34937L3.70956 15.8225L5.12377 17.2367L16.5969 5.76358L15.1827 4.34937ZM4.41667 15.5296H1.5V17.5296H4.41667V15.5296ZM12.2364 1.40309L0.792893 12.8466L2.20711 14.2608L13.6506 2.8173L12.2364 1.40309ZM0.5 13.5537V16.5296H2.5V13.5537H0.5ZM10.9864 4.0673L13.9327 7.01358L15.3469 5.59937L12.4006 2.65309L10.9864 4.0673Z" fill="#3B82F6"/>
</svg>
